# xmcd
#
# Track frame offsets:
#	150
#	17776
#	31217
#	52211
#	66855
#	87046
#	105666
#	122077
#	132956
#	150060
#	165299
#	179812
#	191813
#	210049
#
# Disc length: 3010 seconds
#
# Revision: 0
# Processed by: cddbd v1.5.1PL2 Copyright (c) Steve Scherf et al.
# Submitted via: EasyCDDAExtractor 9.0.0.1
#
DISCID=b10bc00e
DTITLE=Various Artist - A Waltz In Time
DYEAR=2002
DGENRE=Dance Hall
TTITLE0=Sean Kenny and Nadine Somers - 86 My Kind Of Woman My Kind Of man
TTITLE1=Karen Lynne and Martin Lewis - 88 Pathway Of Teardrops
TTITLE2=Burnt Water - 91 Lucky Old Colorado
TTITLE3=Dave Sheriff - 98 Waltz Of A Lifetime
TTITLE4=Gemma and Billy - 103 When I Said I Do
TTITLE5=Rick Tippe - 104 Captured By Love's Melody
TTITLE6=Michelle Snyder - 105 You Keep The Promise
TTITLE7=Gemma Fairweather - 110 Waltz Across Texas
TTITLE8=Speed Limit - 111 Til You Love Me
TTITLE9=Glenn Rogers - 120 Dream Weaver
TTITLE10=Frisco - 132 Pauline's Waltz
TTITLE11=Dean Brothers - 144 Spanish Waltzing
TTITLE12=Everlys Experience - 160 Paradise
TTITLE13=Billy Bubba King - 172 Irish Waltz
EXTD=
EXTT0=
EXTT1=
EXTT2=
EXTT3=
EXTT4=
EXTT5=
EXTT6=
EXTT7=
EXTT8=
EXTT9=
EXTT10=
EXTT11=
EXTT12=
EXTT13=
PLAYORDER=
